<svg width="120" height="36" viewBox="0 0 120 36" fill="none" xmlns="http://www.w3.org/2000/svg">
<path d="M117.299 35.3976H120V17.3732H113.098V21.1765H115.649V29.0366C115.649 30.7893 114.949 31.6894 113.499 31.6894C112.049 31.6894 111.349 30.7893 111.349 29.0366V6.70966C111.349 4.95697 112.049 4.05527 113.448 4.05527C114.848 4.05527 115.55 4.95697 115.55 6.70966V12.066H119.896V6.85862C119.896 2.6528 117.601 0 113.448 0C109.198 0 106.644 2.6528 106.644 6.85862V29.0889C106.644 33.2947 108.944 35.7447 112.495 35.7447C114.295 35.7447 115.597 35.095 116.397 33.843L117.299 35.3976ZM94.4338 6.70966C94.4338 4.95697 95.1342 4.05527 96.5351 4.05527C97.936 4.05527 98.6349 4.95697 98.6349 6.70966V29.0398C98.6349 30.7925 97.936 31.6926 96.5351 31.6926C95.1342 31.6926 94.4338 30.7925 94.4338 29.0398V6.70966ZM101.533 33.8953C102.737 32.645 103.331 30.9921 103.331 28.8892V6.86179C103.331 2.6528 100.787 0 96.5351 0C92.2835 0 89.7326 2.6528 89.7326 6.85862V28.8861C89.7326 30.989 90.3337 32.6418 91.5342 33.8922C92.7347 35.1425 94.3849 35.7447 96.5351 35.7447C98.6854 35.7447 100.336 35.1441 101.536 33.8922L101.533 33.8953ZM77.9229 4.40549H78.9719C80.9234 4.40549 81.9236 5.70812 81.9236 8.36726V27.3869C81.9236 30.0413 80.9234 31.3487 78.9719 31.3487H77.9229V4.40549ZM79.6235 35.3976C83.7741 35.3976 86.5743 32.794 86.5743 27.5375V8.20404C86.5743 2.94756 83.7741 0.343882 79.6235 0.343882H73.2706V35.3976H79.6235ZM66.771 35.3976L70.4231 0.350221H65.9711L64.078 22.4807L61.7196 0.350221H57.1698L54.8192 22.4807L53.1186 0.350221H48.3165L52.0175 35.3976H57.1193L59.369 14.1198L61.4703 35.3976H66.771ZM46.0495 35.3976V31.3424H38.3982V18.4254H43.3503V14.4208H38.3982V4.40549H45.8491V0.350221H33.746V35.3976H46.0495ZM30.4472 35.3976C30.2313 33.8874 30.0981 32.3664 30.0481 30.8416L29.8478 23.5329C29.6979 20.522 28.6472 18.6758 26.6926 18.0245C28.9948 17.0736 30.1455 14.9206 30.1444 11.5652V7.4101C30.1444 2.45313 27.3441 0.350221 23.1431 0.350221H16.7949V35.3976H21.4456V19.8279H22.1949C24.1464 19.8279 25.0961 20.9784 25.1466 23.2825L25.2965 30.241C25.2965 32.5436 25.4542 34.2471 25.7965 35.3976H30.4472ZM21.4456 4.30565H22.8954C24.6465 4.30565 25.5457 5.40702 25.5457 7.56064V12.6174C25.5457 14.7695 24.4966 15.9723 22.8465 15.9723H21.4456V4.30565ZM4.6507 19.026H6.10207C7.8516 19.026 8.90227 20.1781 8.90227 22.2303V27.9352C8.90227 30.2885 8.05196 31.439 6.30242 31.439H4.6507V19.026ZM4.6507 4.30565H5.99479C7.79639 4.30565 8.69561 5.40702 8.69561 7.66048V12.1658C8.69561 14.1198 7.69542 15.2703 5.94589 15.2703H4.6507V4.30565ZM6.60216 35.3976C10.8033 35.3976 13.553 32.8938 13.553 27.9384V22.7311C13.553 19.7772 12.5039 17.8185 10.453 16.8676C12.3461 15.9675 13.3037 14.0152 13.3037 11.0597V7.31026C13.3037 2.35329 10.554 0.350221 6.55168 0.350221H0V35.3976H6.60216Z" fill="#111111"/>
</svg>
